<?xml version="1.0" standalone="no"?>
<!DOCTYPE svg PUBLIC "-//W3C//DTD SVG 20010904//EN"
 "http://www.w3.org/TR/2001/REC-SVG-20010904/DTD/svg10.dtd">
<svg version="1.0" xmlns="http://www.w3.org/2000/svg"
 width="270.000000pt" height="270.000000pt" viewBox="0 0 270.000000 270.000000"
 preserveAspectRatio="xMidYMid meet">
<metadata>
Created by potrace 1.10, written by Peter Selinger 2001-2011
</metadata>
<g transform="translate(0.000000,270.000000) scale(0.100000,-0.100000)"
fill="#8b69e2" stroke="none">
<path d="M1135 2383 c-38 -2 -77 -6 -85 -10 -8 -3 -25 -7 -37 -9 -12 -1 -34
-9 -48 -16 -14 -7 -65 -33 -113 -58 -72 -36 -105 -62 -192 -150 -109 -109
-149 -166 -205 -295 -18 -42 -42 -86 -53 -98 -23 -25 -42 -70 -41 -95 0 -10 6
-5 14 13 11 24 14 26 15 10 1 -14 7 -8 20 20 32 71 166 192 305 276 176 107
319 170 485 212 107 28 250 45 250 30 0 -6 -30 -13 -66 -16 -66 -6 -82 -10
-181 -42 -29 -9 -56 -14 -62 -11 -5 3 -11 -1 -15 -9 -3 -8 -16 -15 -30 -15
-14 0 -28 -5 -31 -11 -4 -6 -14 -8 -22 -5 -8 3 -12 2 -9 -3 6 -9 -17 -22 -37
-20 -7 0 -3 5 8 10 20 9 20 9 0 6 -11 -1 -20 -9 -20 -17 0 -8 -11 -16 -25 -18
-14 -2 -29 -8 -34 -13 -6 -5 -18 -9 -28 -9 -10 0 -18 -4 -18 -9 0 -5 -10 -7
-22 -4 -19 5 -21 3 -11 -7 10 -11 19 -11 50 2 95 40 201 77 235 83 22 4 35 11
31 18 -4 6 4 8 21 5 14 -3 29 -1 32 3 3 5 54 9 114 9 l108 0 27 -45 c14 -25
38 -53 53 -63 l26 -17 -49 -7 c-111 -14 -127 -11 -157 32 -33 48 -52 50 -176
20 -240 -58 -566 -220 -703 -351 -53 -51 -53 -52 -29 -59 18 -4 21 -8 12 -14
-7 -4 -11 -14 -8 -22 6 -16 -10 -19 -19 -4 -3 6 -11 10 -16 10 -6 0 1 -21 15
-47 15 -25 24 -48 22 -50 -8 -8 -56 65 -56 85 0 12 -5 22 -11 22 -27 0 26
-111 62 -130 10 -6 19 -21 19 -34 0 -46 52 -201 95 -285 93 -181 260 -330 397
-356 24 -5 38 -13 41 -27 5 -19 8 -18 44 10 49 39 153 93 165 86 5 -4 -14 -17
-42 -30 -28 -13 -75 -39 -104 -59 -29 -19 -58 -35 -65 -35 -6 0 -11 -5 -11
-12 0 -6 -9 -3 -20 7 -11 10 -23 15 -27 11 -4 -3 3 -13 15 -22 12 -8 22 -21
22 -28 0 -8 8 -20 17 -27 15 -12 16 -12 11 3 -4 9 1 23 13 34 10 9 19 12 19 6
0 -13 59 -46 67 -38 3 3 -6 11 -20 17 -34 16 -41 38 -20 61 24 27 153 98 178
98 16 1 13 4 -10 15 -22 10 -25 14 -11 14 10 1 61 15 113 31 151 49 374 90
484 90 l97 0 6 -32 c7 -31 3 -37 -52 -88 -49 -46 -219 -149 -257 -156 -5 -1
-37 -9 -70 -18 -72 -20 -75 -20 -75 -2 0 23 -51 78 -87 92 -107 45 -257 -38
-243 -135 2 -18 -45 -7 -82 20 -16 11 -28 16 -28 12 0 -12 16 -35 24 -34 21 3
26 -1 26 -20 0 -18 3 -19 15 -9 19 16 41 7 48 -19 4 -16 0 -21 -15 -21 -19 0
-80 36 -86 52 -6 13 -19 9 -26 -7 -9 -25 11 -62 41 -77 16 -8 27 -21 27 -31
-1 -9 2 -15 6 -12 10 6 20 -19 20 -47 0 -20 -1 -20 -22 3 -14 17 -19 19 -15 6
4 -9 3 -17 -2 -17 -5 0 -11 10 -15 23 -8 32 -7 39 5 31 7 -4 10 0 7 11 -1 9
-21 23 -43 31 -48 16 -45 16 -45 6 0 -5 11 -14 25 -20 14 -6 25 -17 25 -24 0
-7 7 -26 16 -43 12 -24 13 -34 3 -52 -7 -13 -10 -26 -6 -29 3 -4 11 5 18 19
11 25 17 27 74 28 26 1 28 2 13 13 -9 7 -20 25 -24 42 -4 16 -11 34 -16 40 -5
7 -2 16 7 24 10 9 15 9 15 1 0 -6 6 -11 13 -11 16 0 37 -55 37 -98 0 -17 5
-43 10 -58 8 -21 8 -31 -2 -40 -15 -14 -58 -2 -58 16 0 7 6 8 19 0 26 -13 31
-13 31 4 0 18 -38 66 -53 66 -6 0 -1 -9 11 -20 30 -28 28 -38 -5 -32 -16 3
-23 7 -16 9 12 4 7 33 -7 33 -4 0 -10 -10 -14 -22 -5 -18 3 -31 36 -60 l43
-36 -28 -13 c-15 -7 -27 -16 -27 -21 0 -12 43 1 53 16 5 8 9 8 15 0 8 -12 109
-40 130 -35 8 1 23 -5 33 -15 11 -9 22 -14 27 -10 4 4 -2 14 -13 22 -11 8 -19
22 -17 30 2 8 -5 14 -15 14 -13 0 -14 3 -5 12 8 8 15 8 26 -2 9 -7 14 -16 11
-20 -6 -10 77 -11 90 -1 5 5 22 11 37 15 22 5 27 2 31 -16 4 -23 4 -23 6 -1 0
12 10 24 22 28 12 4 37 18 56 31 28 19 39 21 55 13 10 -6 24 -8 31 -6 7 3 -3
10 -20 17 -18 7 -33 17 -33 24 0 16 42 56 58 56 23 0 12 -18 -18 -29 -16 -5
-30 -14 -30 -20 0 -16 78 32 91 57 7 12 16 22 21 22 4 0 9 -10 9 -22 1 -21 2
-21 6 -3 3 11 12 28 22 38 9 11 23 38 32 60 14 36 22 43 50 47 23 4 30 8 21
14 -7 4 -24 5 -38 2 -23 -6 -25 -4 -19 15 7 22 -11 69 -27 69 -4 0 -7 -3 -6
-7 4 -14 -13 -53 -23 -53 -9 0 -13 21 -10 47 3 18 -5 16 -39 -9 -16 -12 -32
-19 -35 -16 -3 2 12 17 32 31 26 19 39 23 44 15 6 -9 11 -9 23 1 8 7 19 10 25
7 14 -9 39 4 44 22 3 12 5 10 6 -5 0 -13 5 -23 11 -23 5 0 8 18 6 41 -3 31 2
47 20 69 13 15 24 33 24 39 0 6 5 11 10 11 6 0 10 6 10 14 0 7 10 25 21 40 25
32 18 47 -11 21 -21 -19 -22 -18 -34 37 -6 24 -2 30 33 48 45 22 101 26 119 8
23 -23 11 -57 -43 -123 -30 -37 -55 -75 -55 -84 0 -9 -12 -28 -27 -42 -16 -15
-33 -41 -40 -58 -10 -29 -10 -32 5 -29 11 3 16 12 15 26 -2 16 1 21 10 16 6
-4 9 -3 4 1 -4 5 3 20 17 34 13 14 29 43 35 63 15 45 37 66 53 50 9 -9 9 -15
-1 -24 -12 -11 -13 -9 -7 7 5 17 3 17 -14 -4 -11 -13 -20 -31 -20 -41 0 -9
-13 -34 -30 -55 -16 -21 -30 -41 -30 -46 0 -4 -3 -15 -6 -23 -5 -12 -2 -15 10
-10 12 5 15 2 10 -10 -4 -9 -1 -16 6 -16 9 0 11 11 7 35 -4 26 -1 40 15 57 15
17 18 19 14 6 -3 -10 -1 -18 4 -18 6 0 3 -17 -6 -38 -9 -20 -18 -43 -21 -50
-3 -8 0 -10 11 -6 10 4 16 1 16 -7 0 -11 2 -11 9 0 6 9 6 22 0 33 -6 10 -7 24
-3 30 4 6 7 28 6 48 -1 30 3 39 25 51 21 11 27 11 31 1 3 -9 8 -10 17 -2 10 8
12 4 13 -16 0 -18 -3 -22 -9 -13 -7 11 -9 9 -9 -7 0 -11 -5 -25 -11 -31 -6 -6
-9 -17 -7 -23 2 -7 17 6 32 29 24 34 28 48 23 81 -3 22 -1 40 4 40 9 0 13 -27
10 -65 -1 -11 -11 -33 -22 -48 -11 -15 -18 -33 -15 -40 3 -9 5 -9 5 1 1 6 5
12 11 12 5 0 7 -6 4 -13 -2 -7 4 -21 14 -31 18 -15 20 -15 26 -1 4 11 -2 23
-16 35 -22 17 -22 19 -7 52 9 18 20 49 24 68 4 19 20 63 37 96 48 100 39 193
-24 250 -37 34 -63 44 -113 44 -41 0 -46 2 -40 18 42 99 49 140 51 294 1 87 5
162 9 168 3 5 16 15 28 21 21 10 21 9 -2 -10 -28 -25 -10 -27 30 -4 34 20 34
21 9 52 -19 22 -322 191 -408 227 -9 4 24 54 35 54 8 0 12 -4 9 -9 -7 -11 14
-20 33 -13 9 3 3 11 -19 22 -20 11 -29 20 -21 24 6 4 11 2 11 -3 0 -6 6 -11
13 -11 7 0 29 -11 50 -25 20 -14 37 -23 37 -19 0 3 6 2 13 -4 6 -5 57 -33 112
-62 123 -65 129 -70 145 -123 11 -32 15 -37 18 -21 2 12 -3 37 -11 56 -12 28
-33 44 -129 96 -90 49 -122 72 -144 104 -43 61 -156 152 -253 202 -144 74
-291 101 -496 89z m335 -44 c98 -28 165 -58 237 -107 63 -44 195 -172 176
-172 -7 0 -14 4 -18 9 -3 6 -30 21 -60 36 -32 14 -55 32 -55 41 0 8 -24 39
-53 68 -42 42 -64 56 -105 66 -29 6 -59 9 -68 6 -8 -3 -34 4 -56 15 -23 12
-82 32 -132 45 l-91 25 75 -6 c41 -3 109 -15 150 -26z m-174 1 c45 -10 106
-29 137 -42 47 -19 56 -26 51 -42 -6 -18 -5 -18 17 -2 28 19 103 22 97 4 -5
-15 20 -44 29 -34 3 3 0 13 -8 22 -13 15 -10 15 21 -1 46 -23 46 -22 26 -44
-17 -19 -17 -20 2 -18 11 0 18 5 15 10 -3 5 0 8 7 5 18 -6 61 -86 50 -93 -5
-3 -7 -11 -4 -19 7 -17 -46 -68 -64 -61 -7 3 -22 5 -33 5 -11 0 -19 7 -19 16
0 14 3 14 15 4 19 -16 19 0 0 50 l-13 35 -1 -35 c-1 -40 -17 -30 -24 15 -4 29
-4 28 -6 -5 0 -20 4 -41 11 -48 6 -6 9 -15 5 -19 -12 -11 -56 19 -94 65 -28
35 -37 55 -38 86 -1 39 -3 41 -71 77 -38 21 -104 47 -146 58 -83 23 -204 29
-193 10 4 -6 13 -8 21 -5 7 3 16 1 19 -4 4 -6 24 -10 46 -10 21 0 47 -4 57 -9
9 -5 37 -15 62 -22 25 -7 65 -22 90 -33 44 -20 45 -21 15 -23 -187 -16 -425
-100 -629 -223 -98 -60 -111 -65 -114 -48 -7 37 58 149 124 215 35 34 60 63
55 63 -13 0 -130 -107 -178 -164 -41 -48 -113 -179 -113 -208 -1 -13 -69 -92
-75 -86 -7 7 66 153 106 212 89 130 187 219 312 281 48 25 110 47 137 51 35 5
47 10 43 20 -8 22 154 18 253 -6z m144 -167 c0 -16 -9 -18 -76 -15 -85 4 -89
13 -11 23 85 10 87 10 87 -8z m-820 -165 c-17 -35 -30 -72 -30 -83 0 -11 -12
-28 -25 -38 -14 -10 -25 -16 -25 -13 0 22 93 196 106 196 2 0 -10 -28 -26 -62z
m698 -23 c15 -24 32 -43 39 -40 14 5 142 21 235 30 l67 7 31 -49 c64 -100 96
-262 87 -446 -8 -198 -71 -407 -121 -407 -28 0 -213 -45 -306 -75 -84 -26
-134 -47 -243 -100 l-74 -36 -57 16 c-31 9 -56 19 -56 21 0 3 7 12 15 20 33
33 18 59 -56 97 -35 18 -46 31 -58 67 -21 59 -30 72 -66 90 -29 15 -30 18 -35
104 -5 82 -7 90 -34 113 -32 27 -70 25 -93 -5 -18 -24 -16 -46 7 -89 10 -21
20 -62 21 -93 2 -51 6 -58 51 -102 26 -25 48 -51 48 -56 0 -6 3 -19 7 -29 4
-10 -17 9 -45 42 -112 129 -191 364 -181 543 4 69 -6 84 -16 24 -10 -58 12
-230 39 -318 14 -44 49 -117 77 -163 51 -83 155 -195 201 -218 59 -30 122 -54
168 -66 40 -11 49 -16 38 -25 -37 -31 -194 42 -291 136 -159 154 -257 382
-257 599 0 76 1 79 33 107 150 133 468 281 717 334 75 16 79 15 108 -33z m409
14 c5 -5 25 -18 44 -27 68 -34 124 -213 136 -431 4 -92 9 -118 15 -100 12 30
1 181 -19 274 -15 70 -32 197 -28 203 2 2 24 -10 51 -26 27 -15 57 -31 67 -35
25 -10 38 -49 53 -171 23 -185 -10 -360 -96 -505 -41 -69 -56 -111 -19 -53 12
17 25 32 30 32 8 0 29 -41 29 -55 0 -2 -16 -12 -35 -24 -19 -11 -35 -17 -35
-12 0 4 15 15 33 24 22 11 26 16 14 16 -10 1 -34 -15 -53 -34 -37 -39 -44 -42
-44 -20 0 18 -26 20 -33 3 -4 -10 -8 -10 -15 1 -6 8 -20 12 -36 9 -15 -3 -29
-1 -32 3 -5 9 63 15 120 11 21 -2 27 1 23 13 -4 8 0 32 8 54 7 21 14 54 15 72
4 71 0 139 -9 139 -5 0 -12 -24 -15 -52 -7 -54 -49 -185 -63 -198 -4 -4 -27
-10 -49 -14 l-41 -6 24 67 c92 255 75 584 -42 778 -32 52 -37 75 -16 75 4 0
12 -5 18 -11z m-1040 -639 c7 -14 13 -53 13 -88 0 -75 8 -93 54 -120 28 -16
38 -31 47 -67 11 -45 28 -63 91 -94 50 -26 46 -61 -9 -67 -32 -3 -113 40 -113
61 0 7 -4 15 -9 17 -5 2 -18 26 -28 53 -13 35 -27 54 -47 63 -33 17 -56 65
-49 108 3 20 -3 50 -16 79 -27 62 -20 87 22 83 22 -2 35 -11 44 -28z m1451
-136 c23 -15 30 -34 12 -34 -5 0 -10 3 -10 8 0 15 -42 34 -52 24 -7 -7 3 -17
30 -31 40 -20 41 -22 30 -53 -15 -46 -23 -52 -47 -36 -16 10 -21 23 -21 58 0
26 -7 56 -16 69 -17 23 -17 23 17 16 19 -4 44 -13 57 -21z m-84 -18 c18 -38
20 -74 7 -95 -10 -15 -61 -22 -61 -9 0 4 11 8 25 8 14 0 25 5 25 11 0 7 -10 9
-25 7 -20 -4 -28 1 -40 24 -19 39 -5 68 27 61 22 -4 23 -4 4 11 -20 16 -20 16
1 16 14 0 26 -11 37 -34z m141 -61 c5 -23 4 -26 -4 -15 -8 11 -10 5 -8 -26 2
-42 17 -52 17 -12 0 12 3 19 6 16 3 -3 2 -22 -1 -41 -5 -27 -14 -38 -38 -48
-17 -7 -39 -12 -48 -12 -11 1 -26 -13 -39 -34 -11 -20 -23 -33 -27 -30 -3 3 4
18 16 33 22 28 29 88 11 99 -20 12 -9 23 13 12 17 -8 22 -17 19 -37 -3 -20 1
-27 13 -27 12 0 15 7 12 24 -2 13 4 40 14 61 11 20 19 47 19 61 0 32 16 16 25
-24z m-447 -87 c3 -14 -3 -18 -25 -17 -25 0 -26 1 -8 9 26 11 1 13 -46 3 l-34
-7 30 -8 c20 -5 12 -6 -22 -2 -58 5 -106 -3 -97 -17 3 -5 0 -9 -5 -9 -6 0 -11
4 -11 8 0 5 -20 4 -45 -2 -25 -6 -45 -14 -45 -19 0 -4 -4 -5 -10 -2 -10 6
-153 -40 -238 -76 -24 -11 -47 -18 -49 -15 -7 6 168 76 247 98 124 35 314 77
335 75 11 -1 21 -10 23 -19z m-129 -32 c-2 -2 -17 -6 -34 -10 -22 -5 -26 -4
-15 4 14 9 59 15 49 6z m565 -40 c-3 -9 -10 -13 -15 -10 -5 3 -6 -2 -3 -10 7
-17 -29 -56 -52 -56 -9 0 -14 3 -12 8 29 61 44 82 62 84 27 5 28 4 20 -16z
m-83 -36 c-20 -36 -21 -42 -7 -56 22 -21 20 -39 -4 -41 -11 -1 -20 2 -20 6 0
4 -7 8 -15 8 -8 0 -15 -4 -15 -8 0 -4 -6 -9 -14 -12 -9 -4 -12 2 -11 16 3 30
2 29 26 16 13 -7 19 -7 15 -1 -4 6 2 26 12 44 10 18 24 44 31 56 7 13 15 21
19 18 3 -4 -5 -24 -17 -46z m-184 -25 c-11 -23 -35 -40 -44 -31 -5 4 38 53 49
55 3 1 1 -10 -5 -24z m-51 -67 c-3 -13 -5 -27 -5 -33 -1 -5 -8 1 -17 14 -14
19 -14 25 -3 32 23 14 29 10 25 -13z m-832 -23 c-16 -14 -33 -25 -39 -25 -12
0 46 49 59 50 5 0 -4 -11 -20 -25z m797 -7 c10 -19 8 -25 -22 -50 -21 -17 -40
-26 -51 -22 -10 3 -31 -4 -47 -15 -34 -25 -41 -26 -41 -7 0 8 -6 17 -12 19
-19 8 12 28 35 23 9 -2 15 -1 12 4 -3 4 3 11 12 15 12 4 24 -1 34 -14 l17 -21
26 21 c14 11 26 25 26 31 0 7 -11 1 -24 -11 l-24 -23 -11 21 c-10 18 -8 21 14
27 14 3 25 10 25 15 0 17 19 9 31 -13z m-526 -32 c49 -21 60 -48 41 -97 -23
-57 -30 -136 -17 -203 6 -32 9 -61 7 -65 -3 -4 -39 -3 -81 3 l-76 9 3 40 3 40
63 0 c58 0 62 2 62 23 0 22 -1 22 -34 9 -36 -15 -99 -10 -115 9 -5 6 -15 39
-22 73 -11 55 -11 67 4 98 18 39 69 75 105 75 12 0 38 -6 57 -14z m-311 -51
c-6 -16 -24 -21 -24 -7 0 11 11 22 21 22 5 0 6 -7 3 -15z m652 -9 c22 -22 17
-31 -23 -46 -21 -8 -41 -16 -44 -18 -5 -2 -32 49 -27 52 8 4 64 24 71 25 5 1
15 -5 23 -13z m-108 -35 c7 -4 16 -19 20 -34 l7 -26 50 25 c57 27 55 27 55 15
0 -19 -193 -91 -245 -91 -32 1 1 15 68 29 36 8 57 18 57 26 0 12 -7 12 -47 1
-95 -27 -100 -27 -106 -6 -11 41 3 60 42 60 l36 -1 -30 -14 c-16 -8 -21 -13
-10 -11 11 2 38 8 60 12 l40 7 -30 7 c-27 7 -28 8 -5 9 14 0 31 -3 38 -8z
m209 -40 c-7 -59 -43 -101 -84 -101 -20 0 -32 -4 -28 -10 3 -5 23 -10 43 -11
33 0 35 -2 18 -12 -10 -7 -34 -27 -53 -46 -39 -37 -48 -36 -33 3 12 34 13 49
1 41 -5 -3 -12 -18 -16 -33 -5 -23 -18 -35 -65 -57 -56 -27 -60 -27 -84 -11
-14 9 -26 12 -26 6 0 -6 10 -15 23 -21 13 -6 28 -19 35 -30 10 -16 9 -19 -4
-19 -8 0 -13 4 -9 9 7 13 -73 5 -89 -9 -13 -10 -46 -4 -46 7 0 3 8 12 18 19
15 12 15 13 1 14 -9 0 -22 -7 -29 -15 -22 -26 -130 -1 -130 31 0 8 4 13 8 10
5 -3 39 -7 78 -10 38 -2 77 -8 88 -12 15 -6 17 -3 12 14 -4 13 5 46 25 91 26
58 36 71 55 71 37 0 185 58 229 90 57 40 69 39 62 -9z m43 -32 c-6 -11 -16
-17 -22 -13 -7 4 -6 9 3 15 11 7 11 9 -1 9 -13 0 -13 2 0 9 21 14 32 3 20 -20z
m-397 -38 c-5 -3 -12 -14 -16 -23 -7 -19 -27 -25 -27 -8 0 6 5 10 12 10 6 0 9
3 5 6 -8 9 16 33 27 27 4 -3 4 -8 -1 -12z m387 4 c19 -23 -4 -60 -38 -62 l-27
-2 25 10 c34 14 36 17 15 33 -10 7 -15 18 -11 24 10 16 21 15 36 -3z m-33 -41
c-9 -9 -28 6 -21 18 4 6 10 6 17 -1 6 -6 8 -13 4 -17z m-144 -134 c3 -11 1
-23 -4 -26 -5 -3 -9 2 -9 10 0 18 -2 19 -24 10 -9 -3 -16 -11 -16 -16 0 -6 7
-8 15 -4 8 3 15 1 15 -3 0 -13 -26 -21 -36 -11 -5 4 -18 10 -29 12 -16 3 -13
8 20 26 50 27 61 27 68 2z m-380 -53 c4 3 7 -2 7 -11 0 -13 -6 -17 -20 -13
-14 4 -20 0 -21 -11 0 -11 -4 -9 -10 7 -11 27 7 47 27 31 6 -6 14 -7 17 -3z
m62 -28 c-5 -14 -2 -25 6 -30 11 -7 11 -9 1 -9 -16 0 -26 25 -18 45 9 23 18
18 11 -6z m169 12 c10 -16 -38 -30 -57 -16 -9 6 -14 15 -10 18 9 10 61 8 67
-2z"/>
<path d="M900 2261 c0 -5 -12 -12 -26 -15 -15 -4 -24 -9 -21 -12 3 -3 25 4 49
15 32 15 37 20 21 21 -13 0 -23 -4 -23 -9z"/>
<path d="M930 2240 c-14 -5 -37 -11 -52 -14 -16 -4 -28 -13 -28 -21 0 -19 16
-19 24 0 3 9 18 15 40 15 19 0 38 5 41 11 10 15 3 17 -25 9z"/>
<path d="M1490 2211 c0 -15 30 -41 46 -41 8 0 12 5 9 10 -3 6 -13 10 -21 10
-8 0 -14 7 -14 15 0 8 -4 15 -10 15 -5 0 -10 -4 -10 -9z"/>
<path d="M807 2152 c-32 -35 -17 -72 18 -46 10 8 14 14 9 14 -6 0 -15 -5 -22
-12 -9 -9 -12 -9 -12 0 0 7 9 20 20 29 11 10 20 21 20 25 0 14 -16 9 -33 -10z"/>
<path d="M1544 2145 c-12 -8 -24 -11 -28 -7 -4 3 -4 -1 0 -11 9 -24 23 -21 50
8 25 27 11 34 -22 10z"/>
<path d="M1665 2114 c23 -17 58 -19 53 -3 -2 7 -19 13 -38 14 -32 3 -33 2 -15
-11z"/>
<path d="M542 1574 c-17 -12 -22 -25 -22 -59 0 -59 30 -89 80 -81 65 10 91 77
49 130 -24 30 -72 35 -107 10z m90 -21 c31 -28 21 -79 -18 -94 -55 -20 -101
38 -69 87 18 28 60 32 87 7z"/>
<path d="M1258 770 c23 -12 42 -28 42 -35 0 -7 7 -19 17 -26 15 -13 15 -12 4
9 -9 17 -9 22 0 22 23 0 -40 40 -73 46 -32 6 -32 6 10 -16z"/>
<path d="M1169 739 c-28 -28 -19 -34 18 -12 29 16 32 16 57 -1 34 -22 32 -59
-3 -64 -20 -3 -23 0 -18 17 7 28 -13 54 -33 41 -14 -9 -13 -11 10 -14 6 0 9
-5 8 -11 -2 -5 -6 -9 -10 -7 -12 3 -9 -13 4 -26 7 -7 20 -12 31 -12 10 0 15
-4 12 -10 -11 -18 -33 -11 -64 21 -28 27 -31 28 -31 10 0 -25 36 -51 70 -51
33 0 47 10 59 43 13 34 -2 70 -36 86 -35 16 -50 14 -74 -10z"/>
<path d="M1218 493 c12 -2 32 -2 45 0 12 2 2 4 -23 4 -25 0 -35 -2 -22 -4z"/>
<path d="M1916 2003 c-12 -12 -6 -25 8 -20 8 3 16 1 18 -5 5 -13 68 -40 68
-28 0 4 -14 11 -30 15 -17 4 -28 11 -25 15 7 11 -30 32 -39 23z"/>
<path d="M730 1960 c-24 -15 -7 -18 20 -3 14 7 18 13 10 13 -8 0 -22 -4 -30
-10z"/>
<path d="M680 1930 c-14 -11 -19 -20 -12 -20 14 0 47 28 41 35 -3 2 -15 -5
-29 -15z"/>
<path d="M2074 1908 c-4 -7 -3 -8 4 -4 7 4 12 2 12 -4 0 -6 5 -8 10 -5 6 3 10
1 10 -6 0 -7 3 -9 6 -6 8 7 -14 37 -27 37 -4 0 -11 -5 -15 -12z"/>
<path d="M1740 1013 c-119 -12 -380 -69 -380 -83 0 -7 125 12 195 29 68 18
115 14 136 -11 10 -13 18 -28 19 -34 0 -12 -49 -58 -86 -81 -19 -12 -19 -12 0
-12 31 -1 178 77 226 120 40 36 42 39 15 28 -16 -7 -38 -20 -48 -28 -14 -12
-22 -13 -36 -4 -14 9 -18 8 -18 -3 0 -8 4 -14 9 -14 5 0 6 -5 3 -11 -4 -6 -10
-8 -13 -5 -3 3 -11 1 -19 -6 -20 -17 -27 -3 -7 16 13 14 14 20 4 29 -10 9 -11
9 -6 0 4 -7 2 -13 -3 -13 -6 0 -11 7 -11 15 0 8 -9 20 -20 27 -29 18 -25 23
23 26 30 1 38 -1 27 -8 -25 -16 -6 -11 36 10 42 21 38 22 -46 13z"/>
<path d="M1649 937 c-1 -4 -2 -12 -3 -17 0 -6 -16 -19 -35 -31 -43 -26 -33
-37 14 -15 40 19 54 41 36 59 -6 6 -12 8 -12 4z"/>
<path d="M1476 835 c10 -8 26 -14 34 -14 9 0 4 6 -10 14 -33 19 -49 19 -24 0z"/>
<path d="M2043 795 c-7 -8 -13 -21 -13 -29 0 -8 -4 -17 -9 -20 -12 -8 -2 -43
14 -50 10 -4 13 6 11 39 -2 25 0 42 4 40 4 -3 10 4 13 15 6 23 -3 25 -20 5z"/>
<path d="M2066 715 c-4 -10 1 -15 14 -15 13 0 18 5 14 15 -4 8 -10 15 -14 15
-4 0 -10 -7 -14 -15z"/>
<path d="M961 662 c-7 -13 -11 -26 -8 -28 8 -8 29 25 25 38 -3 8 -9 4 -17 -10z"/>
</g>
</svg>
